<?xml version="1.0" encoding="utf-8"?>
<!-- Generator: Adobe Illustrator 16.0.0, SVG Export Plug-In . SVG Version: 6.00 Build 0)  -->
<!DOCTYPE svg PUBLIC "-//W3C//DTD SVG 1.1//EN" "http://www.w3.org/Graphics/SVG/1.1/DTD/svg11.dtd">
<svg version="1.1" id="Laag_1" xmlns="http://www.w3.org/2000/svg" xmlns:xlink="http://www.w3.org/1999/xlink" x="0px" y="0px"
	 width="300px" height="300px" viewBox="0 0 300 300" enable-background="new 0 0 300 300" xml:space="preserve">
<g transform="translate(0.000000,300.000000) scale(0.100000,-0.100000)">
	<path d="M1742.998,2242.998C1730,2241.001,1720,2235,1720,2230s15-3.999,32.002,1.001c70,20,172.002,2.998,312.998-51.001
		c10.996-3.999,49.004-17.002,85-28.999c110.996-38.003,134.004-75,119.004-192.002c-31.006-237.998-56.006-301.001-149.004-376.997
		c-212.002-172.998-220.996-182.998-202.002-232.002c7.998-20,6.006-29.004-8.994-45c-23.008-25-15-65,11.992-65
		c16.006,0,21.006,7.002,21.006,30c0,2.998-2.998,15.996-7.002,29.004c-5,15.996-4.004,20.996,4.004,15.996
		c15-7.998,40.996,12.002,40.996,32.998c0,7.998,10.996,25,25,37.998c19.004,17.002,25,33.008,25,66.006
		c0.996,40.996,4.004,45,75.996,101.997c90,70,120,113.003,145,203.003c29.004,105,43.007,275,25,315.996
		c-20.996,50-55,69.004-227.998,126.001C1892.998,2248.999,1825.996,2258.999,1742.998,2242.998z M2020,1455
		c0-12.998-12.998-40-30-57.998c-15.996-19.004-30-42.002-30-51.006c0-30.996-19.004-15.996-25.996,21.006
		c-7.002,35-4.004,38.994,36.992,75c24.004,20.996,45,37.998,47.002,37.998C2019.004,1480,2020,1469.004,2020,1455z"/>
	<path d="M1639.004,2202.002c-30-16.001-160.005-97.002-289.004-182.002c-128.999-83.999-316.001-205-415-267.998
		c-282.998-181.001-347.002-226.001-397.998-281.006C478.999,1409.004,451.001,1350,450,1292.998
		c0-40.996,76.001-297.998,105-350.996c26.001-51.006,82.998-99.004,142.002-119.004c31.997-12.002,88.999-32.998,125.996-47.002
		c54.004-20,85-25.996,151.001-25.996c143.003,0,122.002-12.998,635.005,402.002c142.998,115,143.994,115.996,197.998,117.002
		c60.996,0,83.994,8.994,58.994,22.998c-22.998,12.998-20,52.998,7.002,70.996c12.002,9.004,17.998,16.006,12.002,16.006
		c-5,0.996-30-19.004-54.004-44.004c-25.996-25.996-60.996-50-82.998-57.002c-20.996-5.996-37.998-15-37.998-20
		c0-3.994-4.004-7.002-9.004-5c-5,1.006-21.992-10.996-38.994-27.998c-40-39.004-60-55-67.998-55c-3.008,0-15-10.996-26.006-25
		c-10.996-14.004-25.996-25-32.998-25c-7.998,0-19.004-9.004-25-20c-6.001-10.996-16.001-17.002-22.002-14.004
		c-6.997,4.004-7.998,3.008-3.999-3.994S1486.001,1070,1480,1070s-32.002-20-57.998-45c-25-25-51.001-44.004-57.002-42.002
		c-5,2.002-13.999-5-20-15.996c-5-11.006-13.999-20-18.999-21.006c-5,0-27.002-17.998-50-37.998
		c-22.002-20.996-42.002-35-43.999-32.998c-2.002,2.002-16.001-10-29.004-25.996c-13.999-17.002-31.997-28.008-38.999-25
		c-7.998,2.998-13.999-1.006-13.999-9.004s-2.998-14.004-7.002-12.998c-5,0-25-6.006-45-15C1057.002,767.998,900,762.998,900,780
		c0,5-6.001,7.002-12.998,4.004c-23.003-8.008-70,15-63.003,30.996c3.003,9.004,0,15-7.998,15c-7.002,0-18.999,5.996-25,14.004
		C782.002,855,785,859.004,805,862.002c17.998,3.994,28.999,0,36.001-14.004c5-10,15-15,21.001-12.002
		c6.997,5,5.996,11.006-6.001,19.004c-15,10.996-13.999,14.004,6.001,29.004c12.998,8.994,16.997,13.994,8.999,10
		C853.999,885,825,880.996,737.998,872.998C660,865.996,621.001,879.004,586.001,920C557.002,955,470,1224.004,467.002,1287.998
		c-4.004,107.002,80.996,202.998,310,347.002c135.996,86.001,210,133.999,362.998,233.999c96.001,63.003,220,143.003,275,178.999
		c55,36.001,122.998,80,150,98.003c27.998,17.998,72.998,43.999,100,57.998c27.998,13.999,45,26.001,39.004,26.001
		C1697.002,2230,1667.998,2217.002,1639.004,2202.002z M1840,1305c0-7.998-7.002-15-15.996-15c-14.004,0-14.004,2.998-4.004,15
		c7.002,7.998,14.004,15,15.996,15C1837.998,1320,1840,1312.998,1840,1305z M715,840c-2.998-5-12.002-7.002-20-2.998
		C673.999,844.004,676.001,850,701.001,850C712.002,850,718.999,845.996,715,840z M778.999,840.996
		c7.002-5,8.999-10.996,3.999-13.994C770,819.004,730,830,730,840.996C730,852.002,761.001,852.002,778.999,840.996z"/>
	<path d="M1767.002,2143.999c-2.998-5,20.996-7.998,52.002-6.997c71.992,1.997,86.992-6.001,70.996-38.003
		c-10-20-10-21.997,0.996-11.001c7.002,6.001,19.004,12.002,26.006,12.002c10.996,0,10.996-3.999,0.996-20
		c-7.002-11.001-17.998-20-25-20c-22.002,0-13.994-50,10-72.998c25-23.003,42.002-67.002,26.006-67.002
		c-4.004,0-6.006-7.002-3.008-15c5-11.001-0.996-15-20-15c-15.996,0-25.996-6.001-25.996-15c0-7.998-4.004-16.001-10-16.001
		c-15.996-1.997-22.998-5-60-21.997c-55.996-26.001-15.996-20,42.998,6.997c70,31.001,140,92.002,132.002,116.001
		c-2.998,10-10,43.999-15,76.001c-12.998,81.997-40.996,105-130,111.997C1802.998,2150,1770,2148.999,1767.002,2143.999z
		 M1950,2066.001c0-7.002,2.998-28.003,7.002-46.001c3.994-22.998,2.998-31.001-5-26.001c-6.006,3.003-12.998,2.002-17.002-3.999
		c-10.996-17.998-25,0-25,33.999c0,30,15,56.001,32.002,56.001C1945.996,2080,1950,2073.999,1950,2066.001z M1970,1965
		c0-7.998-7.002-15-15-15s-15,7.002-15,15s7.002,15,15,15S1970,1972.998,1970,1965z"/>
	<path d="M1985,2091.001c14.004-17.002,20-37.002,19.004-72.002c0-28.999,2.998-43.999,7.998-36.997
		c3.994,6.997,7.998,28.999,7.998,48.999c0,26.001-7.002,41.997-27.002,60C1965,2115,1965,2115,1985,2091.001z"/>
	<path d="M1569.004,2072.998c-13.008-15.996-12.002-16.997,3.994-3.999c9.004,7.002,17.002,15,17.002,17.002
		C1590,2093.999,1582.002,2088.999,1569.004,2072.998z"/>
	<path d="M1610.996,2072.998c-16.992-17.998,8.008-16.997,33.008,2.002c17.998,13.999,17.998,13.999-1.006,12.002
		C1632.002,2087.002,1617.998,2080,1610.996,2072.998z"/>
	<path d="M1532.998,2052.998c-7.002-2.998-12.998-11.997-12.998-21.997c0-8.999-7.998-28.003-17.002-41.001l-16.997-25
		l21.997,18.999C1520,1995,1530,2011.001,1530,2021.001c0,8.999,5.996,18.999,12.998,21.997c6.006,2.002,10,7.002,7.002,9.004
		C1547.002,2055,1539.004,2055,1532.998,2052.998z"/>
	<path d="M1590,2043.999c0-6.001,9.004-36.997,20-70c10.996-31.997,17.998-63.999,15.996-71.001
		c-2.998-6.997,1.006-12.998,9.004-12.998c19.004,0,19.004,2.002,0,47.002c-7.998,18.999-15,45-15,56.997
		C1620,2016.001,1590.996,2065,1590,2043.999z"/>
	<path d="M1488.999,2012.998c-12.998-15.996-11.997-16.997,3.999-3.999c9.004,7.002,17.002,15,17.002,17.002
		C1510,2033.999,1502.002,2028.999,1488.999,2012.998z"/>
	<path d="M1455,1960c-23.999-46.001-18.999-77.998,16.001-111.001c28.999-26.997,48.999-30,48.999-7.998
		c0,6.001-4.004,6.997-10,3.999c-13.999-8.999-60,40-60,65c0,12.002,7.002,33.999,15,50c8.999,17.002,12.998,30,11.001,30
		C1472.998,1990,1463.999,1977.002,1455,1960z"/>
	<path d="M1792.998,1952.998c9.004-1.997,22.998-1.997,30,0c6.006,3.003-0.996,5-17.998,5
		C1789.004,1957.998,1782.998,1956.001,1792.998,1952.998z"/>
	<path d="M1847.998,1952.998c7.002-2.998,16.006-1.997,19.004,1.001c3.994,3.003-2.002,6.001-12.998,5
		C1842.998,1958.999,1840,1956.001,1847.998,1952.998z"/>
	<path d="M1715.996,1933.999c-18.994-18.999-20.996-31.001-2.998-16.001c7.002,6.001,24.004,16.001,37.998,21.001
		c23.008,8.999,23.008,10,2.002,10C1740.996,1950,1724.004,1942.998,1715.996,1933.999z"/>
	<path d="M2224.004,1917.998L2205,1895l22.998,18.999c21.006,18.003,27.002,26.001,19.004,26.001
		C2245,1940,2235,1930,2224.004,1917.998z"/>
	<path d="M2160,1870c-9.004-6.001-10-10-2.998-10c5.996,0,15,5,17.998,10C2182.998,1882.002,2179.004,1882.002,2160,1870z"/>
	<path d="M1690.996,1841.001c-13.994-3.999-25.996-12.002-28.994-18.999c-6.006-20,32.998-14.004,52.998,7.998
		C1734.004,1851.001,1730.996,1852.002,1690.996,1841.001z"/>
	<path d="M1540,1830c12.998-8.999,12.998-10,0-10c-12.998-1.001-12.998-2.002,0-8.999c19.004-12.002,97.002-17.002,105.996-8.003
		c4.004,4.004-8.994,7.002-27.998,7.002c-20,0-40.996,7.002-47.998,15s-20,15-29.004,15C1527.002,1840,1527.002,1837.998,1540,1830z
		"/>
	<path d="M1725,1810c-12.998-5-14.004-8.999-5-8.999c7.998,0,24.004,3.999,35,8.999c12.998,5,14.004,8.999,5,8.999
		C1752.002,1818.999,1735.996,1815,1725,1810z"/>
	<path d="M1217.998,1786.001c-10-7.002-17.998-16.001-17.998-20c0-11.001,21.001-6.001,37.002,8.999
		c18.999,18.999,38.999,8.999,21.997-11.001c-6.001-7.998-8.999-16.997-5-21.001c3.003-2.998,6.001-0.996,6.001,5
		c0,7.002,5,12.002,11.001,12.002c5,0,6.997-5,3.999-11.001c-3.999-5,5-21.001,18.999-33.999s26.001-21.001,26.001-17.002
		c0,4.004,5-0.996,11.001-10.996c6.001-9.004,13.999-15,20-12.002c5,3.999,8.999,1.001,8.999-5s5-7.998,12.002-3.999
		c6.997,3.999,7.998,2.998,3.999-3.999c-3.999-7.002-2.002-12.002,2.998-12.002c6.001,0,11.001,7.002,11.001,15
		c0,23.999-3.999,30-20,30c-7.998,0-13.999,5-12.998,11.001c0.996,6.997-8.003,8.999-24.004,6.001
		c-17.998-3.003-23.999-1.001-18.999,6.997c3.999,6.001,12.002,8.999,17.002,6.001s6.001,1.001,2.998,8.999
		C1331.001,1742.998,1325,1750,1320,1750c-3.999,0-20,11.001-36.001,25C1251.001,1802.998,1242.002,1805,1217.998,1786.001z
		 M1312.998,1737.002c-1.997-4.004-5-7.002-7.998-7.002s-8.999,0-15,0c-5,0-10,3.999-10,8.999s7.998,8.003,17.998,7.002
		C1307.002,1743.999,1313.999,1740,1312.998,1737.002z"/>
	<path d="M1468.999,1762.998c-12.998-15.996-11.997-16.997,3.999-3.999c16.001,13.003,21.001,21.001,13.003,21.001
		C1483.999,1780,1476.001,1772.002,1468.999,1762.998z"/>
	<path d="M1985,1741.001c-2.998-5-0.996-12.002,5-16.001c5-2.998,10,1.001,10,8.999C2000,1752.002,1994.004,1755,1985,1741.001z"/>
	<path d="M1925,1688.999c-10.996-16.997,0.996-21.001,15-3.999c7.998,8.999,7.998,15,2.002,15
		C1935.996,1700,1927.998,1695,1925,1688.999z"/>
	<path d="M1392.002,1647.002c-21.001-21.001-22.002-21.001-36.001-2.002c-8.003,11.001-18.003,17.002-22.002,12.998
		c-3.999-3.999,3.999-15.996,17.002-26.997c12.998-11.001,25-16.001,26.997-11.001c2.002,5,9.004,7.002,17.002,3.999
		c7.002-2.998,16.001,0,21.001,7.002c5,7.998,2.998,10-6.001,3.999s-11.001-3.999-6.001,3.999c5,7.002,13.999,10,22.002,7.002
		c7.998-3.003,13.999-1.001,13.999,2.998C1440,1667.998,1411.001,1667.002,1392.002,1647.002z"/>
	<path d="M1822.998,1607.998C1805,1595,1790,1581.001,1790,1577.002c0-4.004,15.996,3.999,35,18.999
		c30.996,22.998,40.996,33.999,32.002,33.999C1855.996,1630,1840,1620,1822.998,1607.998z"/>
	<path d="M1361.001,1563.999c0-11.001,2.998-13.999,6.001-6.001c2.998,7.002,1.997,16.001-1.001,19.004
		C1362.998,1581.001,1360,1575,1361.001,1563.999z"/>
	<path d="M1750.996,1548.999c-12.998-11.001-21.992-21.997-18.994-23.999c2.002-2.998,15,6.001,27.998,20
		C1787.998,1575,1784.004,1577.002,1750.996,1548.999z"/>
	<path d="M702.998,1513.999C667.002,1496.001,600,1427.002,600,1407.998c0-5.996,13.999,7.998,31.001,31.006
		C685,1513.999,790,1542.998,817.002,1490c6.997-14.004,12.998-19.004,12.998-12.002s-5,22.002-10,33.003
		C807.002,1535,748.999,1536.001,702.998,1513.999z"/>
	<path d="M1667.002,1484.004c-27.002-21.006-51.006-33.008-57.998-28.008c-7.002,4.004-9.004,3.008-6.006-2.998
		c9.004-13.994-18.994-37.002-33.994-27.002c-7.002,4.004-9.004,3.008-5-3.994c7.998-14.004-70.005-75-85.005-66.006
		c-6.997,4.004-8.999,3.008-5-3.994c7.002-11.006-46.997-55-57.998-47.002c-3.003,2.998-3.999,2.002-1.001-0.996
		c3.999-6.006-177.998-153.008-302.002-244.004c-51.997-37.998-107.998-87.998-82.998-74.004
		c25,14.004,211.001,156.006,243.999,187.002c17.002,15,33.999,27.002,38.003,27.002c2.998,0,12.998,5.996,20,12.998
		c6.997,7.002,46.997,39.004,87.998,70c41.001,31.006,83.999,64.004,95,72.998c10.996,9.004,62.002,48.008,112.998,86.006
		c82.998,62.998,99.004,77.998,89.004,77.998C1715,1520,1692.998,1503.999,1667.002,1484.004z"/>
	<path d="M687.998,1439.004c-27.998-28.008-28.999-32.002-15-46.006c14.004-13.994,19.004-13.994,49.004,4.004
		c17.998,10,32.998,25.996,32.998,33.994c0,8.008,7.002,19.004,15,26.006c10,7.998,11.001,12.002,2.998,12.998
		c-5.996,0-15-4.004-17.998-10c-2.998-5-11.001-10-16.001-10c-6.001,0-6.997,5-3.999,10
		C748.999,1482.002,717.002,1467.998,687.998,1439.004z M723.999,1437.998c-5-7.998-1.997-8.994,11.001-3.994
		c17.998,6.992,17.998,5.996,0-14.004c-20-22.002-55-27.002-55-7.002c0,7.002,5,17.998,12.002,25
		C707.998,1454.004,733.999,1454.004,723.999,1437.998z"/>
	<path d="M597.998,1360c5-14.004,18.003-27.002,28.003-27.998c16.997-2.998,16.997-2.002,3.999,10
		c-7.998,7.002-21.001,20-27.998,27.998C591.001,1382.998,590,1380.996,597.998,1360z"/>
	<path d="M738.999,1022.998c-1.001-5-1.001-15,0-23.994c1.001-8.008-8.999-27.002-22.998-42.002S695,927.998,700,925
		c3.999-2.998,17.998,10.996,30,30s22.998,35,25,35c7.002,0-7.998-40.996-16.001-45.996c-5-3.008-8.999-9.004-8.999-15
		c0-5,8.999-4.004,20,2.998s18.999,17.002,17.998,22.998c0,5,2.002,17.998,7.002,27.998c3.999,10,2.002,22.998-5,32.002
		C757.002,1030.996,741.001,1035,738.999,1022.998z"/>
	<path d="M990,955.996c-6.001-16.992-16.001-25.996-23.999-22.998c-8.003,2.998-18.003-5-25-20
		c-11.001-23.994-10-23.994,31.001,7.998c23.999,18.008,43.999,33.008,45,34.004c0.996,0-2.002,7.002-7.002,15
		C1002.998,980.996,998.999,977.998,990,955.996z"/>
	<path d="M900,917.998c0-3.994,3.999-7.998,8.999-7.998c6.001,0,12.002,4.004,15,7.998c3.003,5-1.001,9.004-8.999,9.004
		S900,922.998,900,917.998z"/>
	<path d="M892.998,894.004c3.003-4.004,1.001-16.006-5-28.008c-10.996-20.996-10.996-20.996,10-1.992
		c21.001,18.994,21.001,35.996,0,35.996C892.002,900,890,897.002,892.998,894.004z"/>
</g>
<line fill="none" stroke="#000000" stroke-miterlimit="10" x1="103" y1="201.4" x2="182.3" y2="139.2"/>
<line fill="none" stroke="#000000" stroke-miterlimit="10" x1="182.3" y1="139.2" x2="226.9" y2="104.1"/>
</svg>
