<?xml version="1.0" encoding="utf-8"?>
<!-- Generator: Adobe Illustrator 16.0.0, SVG Export Plug-In . SVG Version: 6.00 Build 0)  -->
<!DOCTYPE svg PUBLIC "-//W3C//DTD SVG 1.1//EN" "http://www.w3.org/Graphics/SVG/1.1/DTD/svg11.dtd">
<svg version="1.1" id="Laag_1" xmlns="http://www.w3.org/2000/svg" xmlns:xlink="http://www.w3.org/1999/xlink" x="0px" y="0px"
	 width="900px" height="900px" viewBox="0 0 900 900" enable-background="new 0 0 900 900" xml:space="preserve">
<g transform="translate(0.000000,900.000000) scale(0.100000,-0.100000)">
	<path d="M510,8977.001c0-14.004,12.002-32.002,31.001-46.001c16.997-13.003,31.997-21.001,33.999-18.999
		c7.998,10,35,67.998,35,77.998c0,5-22.002,10-50,10C513.999,8999.999,510,8997.997,510,8977.001z"/>
	<path d="M1520,8967.997c0-42.998-7.002-50.996-55-75c-22.002-10.996-52.998-26.997-70-35.996
		c-55-28.003-168.999-67.002-197.998-67.002c-8.003,0-34.004-8.999-58.003-18.999c-23.999-11.001-72.998-25-108.999-31.001
		c-136.001-23.999-156.001-28.999-202.998-45C793.999,8683.998,765,8681,733.999,8686c-37.998,5-48.999,12.998-71.001,46.001
		c-30.996,45.996-51.997,45.996-71.997,1.997l-13.999-31.001H431.001C315,8703.998,275,8699.999,235,8686
		c-57.998-20-115-61.001-115-81.001c0-38.999,63.999-42.998,301.001-20c85,7.998,173.999,16.001,198.999,17.998
		c45,4.004,253.999,44.004,385,74.004c62.998,13.999,192.002,55,315,97.998c25,8.999,90,38.999,145,66.001
		c156.001,78.999,205,123.999,127.998,116.997c-32.998-2.998-37.998,0-40.996,20C1547.002,9013.998,1520,9004.999,1520,8967.997z"/>
	<path d="M220,8868.998c-43.999-86.997-22.998-141.001,22.998-57.998c11.001,17.998,30,43.999,43.003,56.001
		c27.998,25,31.001,47.998,7.998,56.997C261.001,8937.001,250,8927.997,220,8868.998z"/>
	<path d="M0,8612.001c0-13.003,10-17.002,41.001-19.004c31.997-0.996,38.999,2.002,36.997,15C72.998,8632.997,0,8636,0,8612.001z"/>
	<path d="M2390,8583.998c0-13.999,48.999-32.998,56.001-21.997c7.998,11.997,3.999,15-28.999,22.998
		C2402.002,8588.998,2390,8587.997,2390,8583.998z"/>
	<path d="M2480,8582.997c0-10.996,62.998-62.998,77.002-62.998c5.996,0,15,5,17.998,10c2.998,6.001,1.001,10-5,10
		s-26.001,11.001-43.999,25C2492.002,8591,2480,8594.999,2480,8582.997z"/>
	<path d="M2245,8568.998c-3.999-6.001-3.999-12.998-1.001-16.001c8.003-7.998,36.001,5,36.001,17.002
		C2280,8582.997,2252.998,8582.997,2245,8568.998z"/>
	<path d="M2626.001,8562.001c21.997-26.001,33.999-28.003,33.999-7.002c0,7.998-3.999,15-8.999,15s-17.002,2.998-26.001,7.002
		C2608.999,8582.001,2610,8581,2626.001,8562.001z"/>
	<path d="M2132.002,8557.997c6.997-18.999,37.998-21.997,37.998-3.999c0,10-8.999,16.001-21.001,16.001
		C2137.002,8569.999,2130,8564.999,2132.002,8557.997z"/>
	<path d="M2750,8529.999c0-5,7.002-10,15-10s15,5,15,10c0,6.001-7.002,10-15,10S2750,8536,2750,8529.999z"/>
	<path d="M2845,8529.999c-7.998-12.002,77.002-22.002,88.999-10c11.001,11.001,8.999,12.002-46.997,15
		C2866.001,8536,2847.002,8533.998,2845,8529.999z"/>
	<path d="M2977.002,8518.998c-23.003-12.998-13.003-28.999,18.999-28.999c17.998,0,25,5,21.997,17.002
		C3013.999,8527.997,3000,8532.001,2977.002,8518.998z"/>
	<path d="M3110,8486c0-12.002,29.004-26.001,55-26.001c10.996,0-35.996,38.999-47.002,40C3112.998,8499.999,3110,8493.998,3110,8486
		z"/>
	<path d="M3200,8472.001c0-20,102.998-31.001,115-12.002c4.004,6.001-9.004,10-32.002,10c-20.996,0-47.998,2.998-60,6.001
		C3210,8479.999,3200,8477.997,3200,8472.001z"/>
	<path d="M1420,8459.999c0-5,8.999-10,20-10s20,5,20,10c0,6.001-8.999,10-20,10S1420,8466,1420,8459.999z"/>
	<path d="M3367.001,8443.998c-12.002-11.997,3.994-23.999,30.996-23.999c26.006,1.001,26.006,1.001,7.998,15
		C3384.003,8452.001,3375.996,8452.997,3367.001,8443.998z"/>
	<path d="M3432.001,8407.997c2.998-6.997,17.002-13.999,32.998-15.996c15-2.002,39.004-10,50.996-19.004
		c25-15.996,44.004-10.996,44.004,12.002c0,18.999-5.996,21.001-74.004,30C3440,8419.999,3429.003,8418.998,3432.001,8407.997z"/>
	<path d="M2607.002,8392.001c-10-10-24.004-41.001-31.001-68.003c-8.003-26.997-20-62.998-27.002-81.001
		c-11.001-27.998-11.001-38.999,3.999-80c9.004-25.996,17.002-62.998,17.002-80.996c0-18.003,5-43.003,11.001-54.004
		c8.999-17.998,7.998-23.999-7.002-35c-8.999-6.997-15-15-11.997-18.999c3.999-2.998-1.001-21.997-9.004-41.997
		c-11.997-27.002-15.996-82.002-18.999-208.003c-1.997-168.999-2.998-171.997-31.997-225C2463.999,7430,2456.001,7386,2476.001,7365
		c8.999-7.998,20-15,25-15c12.998,0,48.999,61.001,48.999,83.999c0,10,17.998,36.001,40,58.003
		c46.001,45.996,47.002,53.999,20,100.996c-18.999,33.003-20,42.002-11.001,206.001c6.001,93.999,15,180,21.001,191.001
		c12.002,22.002,27.998,27.002,117.002,32.998c46.997,4.004,65,1.001,73.999-10c13.999-15.996,20-130.996,7.998-138.999
		c-3.999-1.997,1.001-26.001,12.002-51.997c16.997-39.004,18.999-53.003,10-83.003c-6.001-20-11.001-55-11.001-77.998
		c0-53.999-11.001-73.999-55-101.001c-42.002-26.001-37.002-40,12.002-40c20,0,52.998-5,73.999-12.002
		c21.997-5.996,41.997-8.999,45-5c11.001,11.001,7.998,353.003-5,455c-8.999,74.004-8.999,118.003-2.002,155
		c17.002,89.004,16.001,163.002-5,239.003c-6.001,21.997-51.001,35-148.999,42.998c-43.999,2.998-88.999,7.998-100,11.001
		C2632.002,8408.998,2617.002,8403.998,2607.002,8392.001z M2802.998,8291c26.001-10,47.002-55,47.002-102.001
		c0-70-25-81.001-155-70c-120,10-131.001,18.003-110,83.003c8.999,24.999,26.001,54.999,37.998,65.995
		c20,19.004,36.001,22.002,134.004,30C2768.999,8298.998,2790,8296,2802.998,8291z"/>
	<path d="M3655,8339.999c2.998-5,15-10,25.996-10c10,0,19.004,5,19.004,10c0,6.001-12.002,10-25.996,10
		C3660,8349.999,3650.996,8346,3655,8339.999z"/>
	<path d="M886.001,8165c-3.003-7.998-11.001-15-18.999-15c-7.002,0-26.001-13.999-43.003-31.001L795,8087.001l30,6.997
		c32.998,8.003,85,52.002,85,73.003C910,8185,892.998,8182.998,886.001,8165z"/>
	<path d="M4170,7971c0-25,4.004-31.001,20.996-31.001c17.002,0,20-3.999,15-23.999c-5-18.999,1.006-30,25-50
		c35-30,54.004-33.003,63.008-10c11.992,31.001,5.996,51.001-24.004,76.997c-15.996,15-30,32.002-30,38.003
		s-7.998,8.999-17.998,6.997c-11.006-1.997-26.006,3.003-35,11.001C4172.001,8001,4170,7998.999,4170,7971z"/>
	<path d="M710,7810c0-31.001,50-178.999,62.998-187.002C783.999,7616,1000,7611,1000,7617.998c0,2.002-8.999,22.002-20,44.004
		c-11.001,22.998-20,50-20,60c0,22.998-26.001,33.999-42.998,20c-16.001-14.004-54.004-5-61.001,12.998
		c-3.003,7.998-23.003,18.999-46.001,25s-48.999,20-57.998,31.001C731.001,7836,710,7835,710,7810z"/>
	<path d="M4275,7820c-2.998-5-0.996-18.999,5-30s7.998-36.001,4.004-55c-8.008-45,0.996-72.002,20-56.001
		c20,16.001,26.992,63.003,15,103.999C4310,7817.998,4285.996,7837.998,4275,7820z"/>
	<path d="M990,7560c0-7.002-8.999-22.998-20-37.002c-11.001-13.999-20-35.996-20-48.999c0-23.999,36.001-57.998,72.998-70
		c12.002-3.999,63.003-30,112.002-58.999c50-28.999,101.001-56.001,115-60c13.999-2.998,45-16.001,70-27.002
		c81.001-36.997,213.999-80.996,325-106.997c105-23.999,173.999-16.001,175,21.997c0,17.002-73.999,39.004-112.002,33.003
		c-22.998-3.999-53.999,0-80,8.999c-23.999,7.998-57.998,15-75.996,15c-18.003,0-43.003,5-55,12.002
		c-30,16.997-89.004,37.998-107.002,37.998c-7.998,0-27.998,7.002-43.999,15c-15,7.998-33.999,15-41.001,15s-23.999,8.999-37.998,20
		c-14.004,11.001-32.002,20-41.001,20c-8.003,0-32.002,11.001-52.002,25s-42.998,25-50,25c-31.997,0-75,37.002-93.999,82.002
		c-11.001,25.996-20,52.998-20,61.997c0,8.003-3.999,18.003-10,21.001C995,7567.998,990,7566,990,7560z"/>
	<path d="M4132.998,7530c-28.994-17.002-52.998-37.002-52.998-46.001c0-7.998-19.004-23.999-42.002-35
		C4014.003,7437.998,3955,7405,3905,7375c-49.004-30-97.002-55-105.996-55c-16.006,0-107.002-32.998-141.006-51.001
		c-10-5-27.002-8.999-37.998-8.999s-27.998-3.999-37.998-8.999C3534.003,7225,3285.996,7185,3239.004,7195
		c-20,5-38.008,1.001-54.004-8.999c-12.998-8.999-30.996-16.001-39.004-16.001c-6.992,0-16.992-7.002-20-15
		c-2.998-8.999-18.994-21.001-35.996-26.001c-15.996-6.001-30-16.001-30-21.001c0-12.998,184.004-5,250,11.001
		c25,6.001,65,15,90,21.001s70,17.002,100,25c75.996,17.998,270.996,82.998,295,98.999c10.996,7.002,32.998,16.001,47.998,20
		c16.006,3.999,46.006,18.003,67.998,31.001c21.006,13.999,44.004,25,50,25c6.006,0,28.008,13.999,49.004,30
		c20.996,17.002,40,30,42.998,30c16.006,0,131.006,77.002,152.002,102.002C4257.998,7565,4219.003,7578.999,4132.998,7530z"/>
	<path d="M2918.999,7432.998c-5-95-3.999-115,3.003-118.999c3.999-2.998,7.998-11.001,7.998-17.998
		c0-18.003-112.998-40-137.002-28.003c-10,6.001-83.999,12.002-165,16.001l-146.997,5l-20-25c-16.001-21.001-18.003-30-8.999-53.999
		c5-17.002,13.999-30,17.998-30c15,0,20-31.001,8.999-52.998c-6.001-12.002-21.001-32.002-31.997-45l-21.001-23.003l103.999,3.003
		c57.998,0.996,148.999-2.002,202.998-7.002c98.003-7.998,104.004-7.002,236.001,31.001c10,2.998,11.001,7.998,2.002,17.998
		c-13.999,17.002-5,43.003,20,57.002c26.001,12.998,23.999,31.997-7.002,78.999c-22.998,33.999-26.001,47.002-20,87.998
		c8.003,62.002-1.997,110-25,123.003C2922.998,7458.999,2920,7457.001,2918.999,7432.998z M2838.999,7192.998l43.999-16.997
		L2860,7157.998c-27.002-21.997-115-23.999-207.998-3.999c-74.004,16.001-90,27.002-69.004,48.003
		C2602.998,7222.001,2778.999,7216,2838.999,7192.998z"/>
	<path d="M0,6900c0-12.002,10-25,25-32.002c13.999-5.996,25-15,25-18.999s10-11.001,22.002-15C85,6830,108.999,6816,126.001,6801
		c16.997-13.999,43.999-33.999,60-43.003c16.001-10,56.001-35.996,88.999-57.998s67.002-42.998,75-46.001
		c7.998-3.999,23.999-15,35-25c11.001-8.999,33.999-25,52.002-36.001C497.998,6557.998,655,6457.001,675,6440
		c11.001-10,52.998-37.002,93.999-61.001c40-23.999,81.001-47.998,90-53.999c8.999-5,55-36.001,103.003-67.002
		c46.997-31.997,90.996-57.998,95.996-57.998s12.002-6.001,15-12.998c2.002-7.002,29.004-25,58.003-40
		c30-15,73.999-43.003,98.999-62.002c25-17.998,48.999-33.999,52.998-33.999c4.004-1.001,27.002-15,50-31.001
		c63.003-46.001,270-180,277.002-180c2.998,0,22.002-12.002,41.001-26.001s65-43.999,102.998-66.997
		c38.003-23.003,78.999-49.004,91.001-57.002c57.998-38.999,153.999-102.002,215-140c7.998-5,71.001-47.002,140-92.002
		c68.999-45.996,168.999-110,222.998-142.998c108.003-66.001,147.002-91.001,234.004-148.999
		C2960,4962.998,2948.999,4969.003,3115,4887.001C3330,4780,3610,4694.003,3855,4660c44.004-5.996,107.002-15,139.004-20
		c158.994-25,405-34.004,602.998-22.002c108.994,7.002,225,16.006,257.998,22.002c32.998,5,102.998,15.996,155,24.004
		c52.002,8.994,110.996,20,130,25c40,10.996,67.002,17.998,130,32.998c40,10,130,40.996,242.998,83.994
		c20,8.008,56.006,21.006,80,30c22.998,9.004,56.006,23.008,72.002,30c17.002,7.002,84.004,34.004,150,59.004
		c65.996,25.996,129.004,50,140,55c10.996,4.004,65,25,120,45c55,21.001,110.996,43.999,125,51.001
		c14.004,6.001,44.004,18.999,67.998,27.998c22.998,8.999,59.004,22.002,80,30c74.004,28.003,327.998,128.999,367.002,146.001
		c80.996,36.001,222.998,90,232.998,90c6.006,0,27.002,8.999,46.006,21.001c18.994,11.001,70,32.998,112.998,48.999
		C7344.003,5527.001,7435,5568.999,7457.998,5601c15,21.001,14.004,21.997-3.994,15c-10-5-50-18.999-89.004-33.003
		c-37.998-12.998-94.004-35-122.998-47.998c-29.004-13.999-57.002-25-62.998-25c-5,0-31.006-8.999-57.002-21.001
		c-80-33.999-190-78.999-329.004-133.999c-50-18.999-103.994-42.002-120-50c-15-7.998-35-15-42.998-15s-37.002-12.002-65-25
		c-27.002-13.999-54.004-25-60-25c-5,0-20.996-6.001-35-12.998c-14.004-7.002-47.002-21.001-75-31.001
		c-27.002-10-74.004-28.999-102.002-42.002c-28.994-12.998-65-26.001-80-30c-28.994-6.997-105-36.997-135-53.999
		c-10-6.001-23.994-10-32.002-10c-7.998,0-40.996-12.998-73.994-30c-34.004-15.996-65-30-69.004-30c-10,0-180-67.002-205-80
		c-22.002-12.002-170.996-70-262.998-102.002c-37.998-13.994-85.996-30-105-37.002c-72.998-25.996-235.996-57.998-480-93.994
		c-225.996-34.004-632.998-31.006-880,7.002c-292.002,43.994-339.004,55-585.996,135
		c-181.006,58.994-356.006,142.998-519.004,249.995C2755,5151,2732.002,5166,2710,5176c-7.998,3.999-31.001,18.999-50,32.998
		c-42.002,31.001-70,48.999-90,58.003c-7.998,2.998-31.001,17.998-50,32.998s-40,28.999-45,31.001
		c-6.001,1.997-48.999,30-97.002,61.997c-46.997,31.001-90.996,57.002-96.997,57.002s-11.001,5-11.001,10
		c0,6.001-10,15-22.002,21.001c-30,12.998-56.997,28.999-103.999,61.001c-123.999,82.998-306.997,200-321.997,205
		c-9.004,2.998-33.003,18.999-53.003,35c-20,15-38.999,27.998-41.001,27.998c-2.998,0-55,33.999-116.997,75
		c-61.001,41.001-113.999,75-117.002,75c-2.998,0-22.998,13.999-43.999,30c-21.001,17.002-42.998,30-50,30s-28.999,13.999-50,30
		c-21.001,17.002-42.002,30-46.001,30c-5,0-23.999,13.999-42.998,30c-18.003,17.002-37.002,30-42.002,30
		c-3.999,0-67.998,38.999-141.001,87.998C1005,6276,937.998,6320,927.998,6325c-8.999,6.001-36.997,23.999-62.998,40
		C840,6382.001,792.998,6411,762.002,6431C731.001,6451,665,6492.998,615,6526C566.001,6557.998,517.998,6590,508.999,6595
		c-8.999,6.001-28.999,18.999-45,28.999c-35,23.003-100,65-213.999,137.002c-47.002,30-93.999,60-105,66.997
		c-11.001,7.002-32.998,20-48.999,30C80,6867.001,55,6885,40,6897.998C6.001,6925,0,6926,0,6900z"/>
	<path d="M7445,6492.998c-80-20-42.998-92.998,55-107.998c42.998-7.002,132.998-32.998,180-52.002
		c47.998-18.999,159.004-20,170.996-1.997c18.008,26.997-0.996,101.997-33.994,136.997c-37.002,39.004-46.006,39.004-97.002,7.002
		c-25-16.001-40.996-21.001-45.996-13.999c-4.004,6.001-20,7.998-40,3.999c-21.006-2.998-44.004,0-61.006,7.998
		C7540,6490,7474.003,6500,7445,6492.998z"/>
	<path d="M8150,6225c0-18.999,4.004-35,10-35c12.002,0,24.004,45,15,58.999C8162.001,6271,8150,6258.999,8150,6225z"/>
	<path d="M4125,6180c-27.002-3.999-70-15-95-25c-25-8.999-57.998-18.999-75-22.002c-15.996-2.998-35-10-40.996-13.999
		c-6.006-5-19.004-6.997-28.008-2.998c-10,3.999-17.998,0-21.992-10c-3.008-8.999-12.002-16.001-20-16.001
		c-21.006,0-128.008-58.999-137.002-76.001c-4.004-6.997-14.004-13.999-21.006-13.999c-16.992,0-98.994-87.998-117.998-126.001
		c-7.998-16.001-20-53.999-27.998-85c-10.996-48.999-10-58.999,5-90c15.996-31.997,72.002-88.999,87.002-88.999
		c3.994,0-2.002,17.002-12.998,37.998C3605.996,5668.999,3595,5711,3592.001,5746c-5,61.997,7.002,97.998,48.994,151.997
		C3662.001,5926,3745,5990,3759.003,5990c5,0,21.992,6.001,37.998,13.999c227.998,115,627.002,123.999,928.994,21.001
		C4857.998,5980,4970,5907.001,5022.998,5831C5052.001,5788.999,5055,5777.998,5055,5710c0-72.998-15.996-118.999-49.004-142.002
		c-18.994-12.998,2.002-20,25-6.997C5079.003,5586,5120,5655,5120,5707.998c0,34.004-29.004,122.002-40,122.002
		c-4.004,0-10.996,11.001-14.004,25c-12.998,50-162.998,178.999-275,236.001C4645.996,6163.999,4312.001,6207.998,4125,6180z"/>
	<path d="M8144.003,6136c-12.002-31.001,0.996-51.001,33.994-53.999c39.003-4.004,42.998,15,9.004,45.996
		C8160,6153.999,8150.996,6155,8144.003,6136z"/>
	<path d="M8072.998,6022.998c-8.994-15.996-22.002-33.999-27.002-41.997c-8.994-11.001-6.992-13.003,11.006-7.002
		c28.994,8.999,43.994-18.999,35.996-67.998c-5-31.001-2.998-36.001,14.004-36.001c27.998,0,40,17.002,47.998,71.001
		c5.996,41.997,5,46.997-19.004,62.998c-13.994,8.999-25.996,23.003-25.996,31.001
		C8110,6058.999,8092.001,6052.001,8072.998,6022.998z"/>
	<path d="M8010,5950c0-5-15.996-27.998-35.996-50c-30-32.998-34.004-42.998-24.004-55c7.998-8.999,10.996-30,7.002-55
		c-2.998-25,0-46.001,7.998-57.002c12.998-16.997,15-16.997,40.996,8.003c31.006,31.001,45,108.999,24.004,133.999
		c-7.998,8.999-10,27.998-5.996,50c3.994,22.002,2.998,35-4.004,35C8015,5960,8010,5956,8010,5950z"/>
	<path d="M4235,5870c-147.998-17.002-255-97.998-225-170c17.998-42.998,42.002-62.002,140-111.001
		c40-18.999,62.002-21.997,190-22.998c139.004-1.001,147.002,0,202.002,26.997c85.996,42.002,130.996,106.001,95.996,135
		c-20,16.001-63.994-7.998-90-47.998c-17.002-25-37.998-40-72.998-52.002c-100.996-33.999-272.998-15-340.996,37.002
		c-30,22.998-35,32.002-32.002,62.998c2.998,32.002,8.994,40,47.002,61.001c37.998,21.001,58.994,25,153.994,27.002
		c77.998,1.997,112.002,6.001,117.998,16.001c11.006,15.996,11.006,25.996,2.002,30.996
		C4405.996,5872.001,4292.001,5877.001,4235,5870z"/>
	<path d="M4545,5828.999c-32.998-16.001-82.998-36.997-112.002-46.001c-50-15.996-70-33.999-57.002-53.999
		c8.008-13.999,59.004-11.001,91.006,5c15,8.003,47.998,22.002,72.998,32.002c130,48.999,149.004,62.998,110.996,83.999
		C4622.998,5863.999,4612.998,5862.001,4545,5828.999z"/>
	<path d="M7825.996,5786c-43.994-23.999-48.994-32.002-65-98.999C7747.998,5630,7752.001,5620,7790,5620c50,0,60,8.999,60,53.999
		c0,22.002,5,61.001,10.996,85c5,23.999,8.008,43.999,7.002,46.001C7865.996,5806,7847.001,5797.001,7825.996,5786z"/>
	<path d="M7562.998,5651c-30-22.002-43.994-42.002-55.996-78.999c-10-28.003-14.004-57.002-11.006-65
		c5-13.003,10-13.003,37.002,2.998c17.998,10,52.002,23.999,75,30c39.004,10,42.998,13.999,37.002,32.998
		c-9.004,28.003-9.004,56.001,0,85c5.996,19.004,4.004,22.002-17.002,22.002C7614.003,5680,7585,5667.001,7562.998,5651z"/>
	<path d="M3440.996,4924.003c6.006-8.008,27.002-16.006,48.008-20c20-4.004,45-11.006,55.996-17.002
		c10.996-6.006,32.002-10,45.996-9.004c15,1.006,29.004-3.994,32.002-12.002c4.004-8.994,30-15.996,75-20.996
		c39.004-4.004,82.002-12.998,96.006-20c15-7.998,32.998-12.002,40.996-7.998c9.004,2.998,20.996,0.996,27.998-5
		c6.006-5,47.002-12.002,90-16.006c62.998-5.996,77.002-3.994,77.002,8.008c0,15.996-50,35.996-90.996,35.996
		c-15,0-29.004,5-31.006,10.996c-2.002,7.002-47.998,15-112.998,20c-110.996,9.004-165,20-220,44.004
		c-15.996,7.998-55.996,15-87.002,17.998C3440.996,4935.996,3432.001,4934.003,3440.996,4924.003z"/>
	<path d="M5125,4860c-7.998-12.002,20-24.004,35-15c5,2.998,10,10,10,15.996C5170,4872.998,5132.998,4872.998,5125,4860z"/>
	<path d="M4087.001,4812.001c-11.006-12.002-14.004-22.002-7.998-26.006c7.998-5,103.994-7.998,208.994-6.992c12.002,0,30,0,40,0
		c9.004-1.006,87.002,0,172.002,0c135,0.996,185,8.994,169.004,25c-2.002,2.998-112.002,6.992-244.004,10
		c-132.002,1.992-257.998,7.998-280,10.996C4112.001,4830,4100.996,4827.998,4087.001,4812.001z"/>
	<path d="M6420,4277.998C6317.001,4220.996,6222.998,4110,6157.998,3970C6115,3877.998,6110,3859.004,6110,3789.004
		c0-61.006,4.004-77.002,25-104.004c47.998-62.998,184.004-72.002,285.996-19.004C6480,3697.002,6572.998,3785,6605,3840
		c77.998,135,99.004,195,90,262.998c-9.004,65-45.996,137.002-90,176.006C6555.996,4322.002,6497.001,4320.996,6420,4277.998z
		 M6582.998,4220c70-60.996,76.006-189.004,15-317.998c-27.998-57.998-148.994-179.004-207.002-205
		c-30-14.004-66.992-21.006-107.998-22.002c-57.002,0-65,2.998-97.002,34.004c-33.994,32.998-35.996,38.994-35.996,96.992
		c0,53.008,2.998,62.002,20,67.002c10.996,2.998,20,12.998,20,22.002c0,15,7.002,30.996,39.004,92.002
		c45.996,87.002,158.994,225,202.998,245.996C6485.996,4260,6544.003,4255,6582.998,4220z"/>
	<path d="M6475,4080.996c-2.998-5-0.996-11.992,5-15.996c12.002-7.002,30,2.002,30,15.996
		C6510,4092.998,6482.998,4092.998,6475,4080.996z"/>
	<path d="M6525.996,3992.002c-10-11.006-15.996-31.006-13.994-44.004c2.998-22.002,5-20.996,20.996,10
		C6555,3999.004,6550.996,4019.004,6525.996,3992.002z"/>
	<path d="M6294.003,3895c-4.004-14.004-3.008-29.004,0.996-32.998c7.998-7.998,35,25.996,35,45
		C6330,3930.996,6300.996,3920.996,6294.003,3895z"/>
	<path d="M0,4205c1.001-37.002,3.999-42.998,52.998-75c28.003-19.004,60-45,70-57.002s28.003-25,40-28.994
		c12.002-4.004,28.003-15,35-26.006c12.002-17.002,62.002-53.994,114.004-83.994c10-6.006,25.996-19.004,35.996-28.008
		c26.001-25,133.003-105.996,141.001-105.996c3.999,0,42.002-25.996,83.999-57.002C703.999,3645,767.002,3600,776.001,3600
		c5,0,22.998-14.004,38.999-30c17.002-17.002,55-45.996,85-65.996s63.999-46.006,75-57.002
		c17.002-19.004,187.998-139.004,242.998-172.002c9.004-5,34.004-25,56.001-42.002c22.002-17.998,43.999-32.998,48.003-32.998
		c7.998,0,56.997-37.002,155.996-117.998c18.003-15,46.001-34.004,62.002-42.998c17.002-9.004,52.998-37.002,82.002-61.006
		c28.999-25,70-55,91.997-65.996c21.001-11.006,45-30,53.003-41.006c7.998-11.992,20-20.996,26.997-20.996
		c7.002,0,37.002-17.998,67.002-40c30-20.996,68.999-49.004,86.997-62.002c51.001-35,115-85,137.002-105.996
		c11.001-11.006,35-27.002,53.999-37.002c18.999-9.004,46.001-27.998,60-40.996c13.999-13.008,30-24.004,35-24.004
		s28.003-17.002,51.001-37.002c22.998-20.996,67.002-52.998,98.999-72.002C2415,2412.998,2440,2394.004,2440,2390
		c0-5,21.001-20,47.998-35.996c48.003-28.008,123.003-82.002,169.004-121.006c13.999-12.998,30-22.998,35.996-22.998
		c5,0,26.001-15,47.002-32.002c48.999-42.998,151.001-117.002,217.002-157.002c28.999-17.998,55.996-37.998,60-45
		c5-6.992,27.998-25.996,52.002-41.992c23.994-16.006,60.996-40,81.992-54.004c21.006-14.004,68.008-45.996,106.006-70.996
		c37.002-25,85.996-55,107.998-67.002c95.996-50,214.004-102.002,230.996-102.002c11.006,0,51.006-7.998,89.004-19.004
		c39.004-10,97.998-23.994,132.998-30c34.004-5.996,90-15.996,122.998-22.998c37.002-7.002,172.002-12.002,333.008-12.002
		C4550,1555,4542.998,1555,4745,1597.998c22.002,5,49.004,12.998,60,19.004c10.996,5,47.002,15.996,80,22.998s80,22.998,105,35.996
		c25,13.008,52.002,24.004,60,24.004s32.002,10.996,52.002,25s42.002,25,47.998,25s47.998,17.998,94.004,40
		c45.996,22.002,85.996,40,90,40c2.998,0,52.998,22.998,110,50c56.992,27.998,105.996,50,110,50
		c2.998,0,33.994,12.998,67.998,29.004c60.996,26.992,173.994,77.998,287.998,128.994c30,12.998,95,44.004,142.998,67.998
		C6100.996,2180,6147.001,2200,6155.996,2200c11.006,0,162.002,70.996,234.004,110.996c7.998,5,35,19.004,60,31.006
		c25,12.998,47.002,25.996,50,28.994c2.998,4.004,15.996,9.004,29.004,10C6557.001,2385,6570,2410,6545,2410
		c-29.004,0-117.998-30-177.998-60.996c-32.002-16.006-65-29.004-72.998-29.004c-8.008,0-46.006-15.996-84.004-35
		s-75.996-35-82.998-35c-7.998,0-26.006-9.004-40-20c-14.004-10.996-32.002-20-40-20c-9.004,0-42.002-12.998-74.004-29.004
		C5940.996,2165,5895,2144.004,5870,2134.004s-52.002-24.004-60.996-31.006c-8.008-7.002-22.002-12.998-31.006-12.998
		c-7.998,0-37.002-12.002-63.994-25.996C5687.001,2050,5645,2030,5620,2020c-59.004-22.998-497.998-222.002-655-295
		c-94.004-45-200-77.002-295-90.996c-255.996-37.002-662.002-21.006-907.002,36.992c-67.002,16.006-130.996,29.004-142.002,29.004
		c-10.996,0-35,5.996-52.998,14.004C3550,1722.002,3515,1735.996,3490,1745s-52.002,20.996-60,25.996s-40,22.002-70,39.004
		c-30,15.996-65.996,39.004-80,49.004c-14.004,10.996-72.002,52.998-130,95c-57.998,40.996-117.998,85-133.999,97.998
		c-16.001,12.002-73.003,52.998-125,88.994c-53.003,37.002-105,76.006-116.001,87.002c-11.001,11.006-40,32.002-65,47.002
		c-25,15.996-47.002,30.996-50,34.004c-2.998,2.998-25,20-50,35.996s-96.001,67.002-157.998,112.002
		c-62.002,45.996-115,82.998-118.003,82.998c-3.999,0-38.999,25.996-80,57.998c-115,90-203.999,156.006-231.001,170
		c-12.998,7.998-70.996,47.998-127.998,90c-57.998,42.998-161.001,117.998-230,167.002c-68.999,50-141.001,100.996-160,115
		s-48.999,35-67.002,47.998c-17.998,12.998-75,55-126.997,92.998C1260,3319.004,1212.002,3350,1205,3350s-20,10.996-28.999,25
		s-21.001,25-27.002,25c-7.998,0-41.997,24.004-133.999,95c-11.001,9.004-32.002,22.998-46.001,32.998
		c-15,9.004-55,37.002-88.999,62.002s-70,50-78.999,55c-8.999,5.996-35,25.996-57.002,45c-41.997,35-111.001,85.996-146.001,105.996
		c-10,6.006-28.999,21.006-41.997,33.008C543.999,3840,528.999,3850,522.998,3850c-5.996,0-15.996,7.002-23.999,15.996
		c-6.997,8.008-37.998,32.002-67.998,52.002c-31.001,20-90,61.006-131.001,92.002s-86.001,62.998-100,72.998
		c-107.002,71.006-157.998,110-177.002,134.004L0,4245V4205z"/>
</g>
<path fill="none" d="M643.5,490.5c-0.228,3.79-2.406,7.017-5.61,8.962c-2.027-5.359,3.645-9.591,6.61-13.962"/>
<path d="M665.817,489.977c-0.184-0.384-0.37-0.775-0.558-1.171c-0.477-1.261-0.713-2.641-1.442-3.829
	c-0.349-0.568-0.767-1.018-1.223-1.38c-2.038-3.51-4.632-6.659-8.501-7.956c-1.209-0.405-2.363-0.45-3.467-0.254
	c-0.393-0.818-0.913-1.627-1.592-2.422c-1.849-2.166-5.155-1.69-7.07,0c-7.86,6.934-14.924,14.88-21.032,23.387
	c-6.312,8.791-12.537,20.512-7.598,31.271c5.372,11.705,19.555,11.07,28.339,4.374c6.721-5.123,12.711-12.589,16.435-20.55
	c1.516-0.102,2.947-0.861,3.709-2.424c1.587-3.256,2.382-6.301,2.271-9.94c-0.024-0.804-0.091-1.571-0.161-2.323
	c0.021-0.043,0.041-0.087,0.062-0.131C665.962,495.35,667.156,492.771,665.817,489.977z"/>
</svg>
